<svg id="Layer_1" data-name="Layer 1" xmlns="http://www.w3.org/2000/svg" xmlns:xlink="http://www.w3.org/1999/xlink" viewBox="0 0 3840 2160"><defs><style>.cls-1{fill:#e7e7e8;}.cls-2{fill:#a11;}.cls-3{fill:#fff;}.cls-4{fill:#e44d26;}.cls-5{fill:#f16529;}.cls-13,.cls-6{fill:#ebebeb;}.cls-7{fill:#264de4;}.cls-8{fill:#2965f1;}.cls-9{fill:#61dafb;}.cls-10,.cls-11{fill:none;stroke:#61dafb;}.cls-10{stroke-width:5.79px;}.cls-11{stroke-width:5.79px;}.cls-12{fill:#d4b830;}.cls-13{fill-opacity:0;opacity:0.99;isolation:isolate;}.cls-14{fill:#fdd83c;}</style></defs><path class="cls-1" d="M1193.12,413.38a5.46,5.46,0,0,1-.27-.6,5.2,5.2,0,0,1-1-2.82,4.67,4.67,0,0,1-.59-1.1,2.43,2.43,0,0,1-.2-.35,4.25,4.25,0,0,1-.6-.6l.16.42C1059,389.27,962.25,494,962.25,494L895.76,327.5a7.76,7.76,0,0,1-2.7,4,25.06,25.06,0,0,1-2.45,1.71l-.36.47c.8-.63,1.23-1,1.23-1L956.6,498.15c-88.06,91.94-244.15,82.32-244.15,82.32l-.07-.16-.11.22c.38,1.08.68,2.17,1,3,.56,1.33,1.7,3,2.29,4.57l.06,0-.06-.15c168.94.23,244.1-82.67,244.1-82.67l71.62,163.26,0,0,.33-.07a3.71,3.71,0,0,1,1.11-.83,4.46,4.46,0,0,1,1.49-1,4.41,4.41,0,0,1,1.43-1,4.79,4.79,0,0,1,.86-.82,4.46,4.46,0,0,1,.58-.72,1.46,1.46,0,0,1,.07-.19l-.31.32L965.07,500.5c103.06-112,228.35-85.11,228.35-85.11l.13.32,0-.06a4.35,4.35,0,0,1,0-.51A5.58,5.58,0,0,1,1193.12,413.38Z"/><image width="3840" height="2160" transform="translate(-0.04 0.19)" xlink:href="C:%5CUsers%5CAyush%5CDesktop%5CUntitled-1.png"/><path class="cls-2" d="M891.49,332.72s-92.56,78.43-255.62,80.78l76.59,167s156.09,9.62,244.15-82.33Z"/><path class="cls-2" d="M959.69,505.34S884.53,588.25,715.59,588l65.13,167.24s162.53,5.3,250.59-86.64Z"/><path class="cls-2" d="M1193.43,415.4s-125.3-26.88-228.35,85.12l71.76,163.82s86.41-92.62,219.59-87.91Z"/><path class="cls-2" d="M1123.55,233.28S998.45,214.6,895.39,326.6L962.25,494s96.71-104.71,228.36-85.65Z"/><path class="cls-3" d="M767.29,432.46l4.87-1.78,1.76,4.83,4.49-1.63-1.76-4.83,4.88-1.78,5.32,14.62L782,443.67l-1.77-4.88-4.45,1.62,1.77,4.88-4.91,1.79m17.13-17.28-4.3,1.57-1.77-4.87,13.49-4.92,1.77,4.88L794.61,428l3.55,9.75-4.87,1.77m6-18.75,5.11-1.85,5,4,1.26-6.29,5.1-1.86,5.33,14.62-4.88,1.78L813.6,424l-1.5,6.5-5.33-4,2.64,7.25-4.79,1.74m13.58-21.49,4.87-1.78,3.57,9.79,6.9-2.51,1.76,4.83-11.78,4.28"/><path class="cls-4" d="M803.44,532.31l-35.56-75.93,76.87-28,21.56,81L838,529.58"/><path class="cls-5" d="M835.61,522.88l-27-74.05,31.42-11.44,18.37,69.14"/><path class="cls-6" d="M788,467.22l24.16-8.79,3.5,9.62L802.05,473l4.48,9.53,12.71-4.63,3.5,9.6-21.53,7.83m2.18,4.68,9.66-3.52,3.48,7.44,11.81-1,3.66,10-21.75,1.68"/><path class="cls-3" d="M836.22,449.67l-24.11,8.77,3.5,9.62,23.22-8.45m2.72,10.17-22.35,8.13,3.5,9.62,11.87-4.32L838,496.12l-9.69,6.79,3.64,10,17.71-12.63"/><g id="layer1"><g id="g3013"><polygon id="polygon2989" class="cls-7" points="1065.99 282.35 1087.54 363.33 1059.24 383.51 1024.68 386.22 989.14 310.32 1065.99 282.35"/><polygon id="polygon2991" class="cls-8" points="1079.72 360.52 1061.31 291.31 1029.9 302.75 1056.86 376.82 1079.72 360.52"/><polygon id="polygon2993" class="cls-6" points="1018.09 339.99 1022.46 349.3 1043.99 341.46 1040.49 331.84 1018.09 339.99"/><polygon id="polygon2995" class="cls-6" points="1033.4 312.37 1033.37 312.38 1009.27 321.15 1013.65 330.45 1036.9 321.99 1033.4 312.37"/><polygon id="polygon2997" class="cls-6" points="1053.22 366.84 1049.58 356.83 1049.54 356.86 1037.78 357.86 1034.3 350.44 1029.09 352.33 1024.64 353.95 1031.48 368.57 1053.18 366.87 1053.22 366.84"/><path id="path2999" class="cls-3" d="M999.46,282.42l11.66-4.24,1.77,4.87-6.78,2.47,1.77,4.87,6.78-2.47,1.78,4.88L1004.78,297Z"/><path id="path3001" class="cls-3" d="M1013.45,277.33l11.65-4.24,1.54,4.23-6.78,2.47.31.85,6.78-2.47,3.55,9.75-11.65,4.24-1.62-4.45,6.78-2.47-.31-.85-6.78,2.47Z"/><path id="path3003" class="cls-3" d="M1027.43,272.24l11.65-4.24,1.55,4.23-6.78,2.47.3.85,6.78-2.47,3.55,9.75-11.65,4.24-1.62-4.45,6.78-2.47-.31-.84-6.78,2.46Z"/><polygon id="polygon3005" class="cls-3" points="1055.8 337.16 1059.23 350.05 1049.55 356.85 1053.19 366.86 1070.93 354.21 1070.48 352.54 1063.52 326.38 1062.82 323.71 1057.47 303.61 1033.37 312.38 1036.87 322 1050.42 317.07 1053.13 327.24 1040.45 331.85 1043.95 341.48 1055.8 337.16"/></g></g><circle class="cls-9" cx="1099.41" cy="514.61" r="12.37"/><ellipse class="cls-10" cx="1099.41" cy="514.61" rx="63.74" ry="24.34" transform="translate(-109.71 407.05) rotate(-20)"/><ellipse class="cls-11" cx="1099.41" cy="514.61" rx="24.34" ry="63.74" transform="translate(-1.49 1026.02) rotate(-50)"/><ellipse class="cls-11" cx="1099.41" cy="514.61" rx="63.74" ry="24.34" transform="translate(401.7 1507.95) rotate(-80)"/><rect class="cls-3" x="852.64" y="602.2" width="73.56" height="88.71" transform="translate(-165.59 336.64) rotate(-19.64)"/><g id="g5193"><path id="path5113" class="cls-12" d="M867,706.15l-44.22-94,95.17-34.6,26.6,100.32L909.61,703Zm68.48-30.93-22.93-86-39,14.19,33.73,91.75ZM874.35,617l-9.47,3.44,18,49.89L862.72,672l4.18,11.38,30.65-2.63L874.35,617Z"/><path id="path5159" class="cls-13" d="M894.1,680.93c-1.36.08-8,.64-14.77,1.22l-12.27,1.06-2-5.61c-2-5.49-2-5.6-1.42-5.62.34,0,4.83-.37,10-.77l9.35-.76-9-24.89-9-24.9,9.28-3.37,11.51,31.62c9.14,25.13,11.43,31.65,11.17,31.74s-1.49.17-2.84.28Z"/><path id="path5117" class="cls-14" d="M873.53,603.39l39-14.19,22.93,86L907,695.25ZM928.34,662l-8.77-32.07-18.16,9-6-16.63,20.16-7.42-3.32-11.66-30.41,11.24,15.45,41.2,17.26-9.86,3.1,9.3-16.77,11.69,4.3,11.22,23.21-16Z"/></g></svg>